<svg width="24" height="23" viewBox="0 0 24 23" fill="none" xmlns="http://www.w3.org/2000/svg">
<path d="M21.5436 22.8947C21.3626 22.8945 21.185 22.8452 21.0299 22.752L16.6917 20.158C15.1925 20.7242 13.6025 21.0115 12 21.0058C5.56218 21.0058 0.324341 16.4828 0.324341 10.9232C0.324341 5.36366 5.56218 0.840637 12 0.840637C18.4379 0.840637 23.6757 5.36366 23.6757 10.9232C23.6757 13.3758 22.669 15.696 20.8242 17.5284L22.4737 21.4819C22.6424 21.8867 22.5347 22.355 22.2072 22.6437C22.019 22.8097 21.7823 22.8947 21.5436 22.8947V22.8947ZM16.7793 18.0091C16.9576 18.0091 17.1354 18.0571 17.293 18.1518L19.4283 19.4277L18.6902 17.6594C18.6072 17.4609 18.5888 17.2412 18.6377 17.0316C18.6866 16.8221 18.8003 16.6332 18.9626 16.4919C20.701 14.9838 21.6584 13.006 21.6584 10.9232C21.6584 6.48648 17.3254 2.8761 12 2.8761C6.67461 2.8761 2.34164 6.48648 2.34164 10.9232C2.34164 15.36 6.67461 18.9704 12 18.9704C13.5419 18.9704 15.0169 18.6739 16.3862 18.0895C16.512 18.0357 16.6456 18.0091 16.7793 18.0091V18.0091ZM6.11612 11.0192C6.11801 10.6703 6.258 10.3363 6.50549 10.0902C6.75297 9.84421 7.08781 9.70619 7.43677 9.70637C7.78579 9.70979 8.11926 9.85124 8.3643 10.0998C8.60934 10.3484 8.74601 10.6838 8.74445 11.0329C8.74445 11.7626 8.16067 12.3554 7.43677 12.3587C7.08803 12.3587 6.75346 12.2207 6.50613 11.9748C6.25881 11.729 6.11883 11.3952 6.11677 11.0465V11.0199L6.11612 11.0192ZM10.4867 11.0192C10.4867 11.7684 11.0893 12.3762 11.832 12.3762C12.1902 12.3745 12.5331 12.2306 12.7853 11.9761C13.0374 11.7217 13.1782 11.3775 13.1767 11.0192C13.1782 10.661 13.0374 10.3168 12.7853 10.0624C12.5331 9.80789 12.1902 9.66398 11.832 9.66226C11.6546 9.66302 11.479 9.69873 11.3154 9.76734C11.1518 9.83595 11.0032 9.93611 10.8783 10.0621C10.7534 10.1881 10.6545 10.3375 10.5873 10.5017C10.5201 10.666 10.486 10.8418 10.4867 11.0192V11.0192ZM14.858 11.0192C14.8599 10.6703 14.9998 10.3363 15.2473 10.0902C15.4948 9.84421 15.8296 9.70619 16.1786 9.70637C16.5276 9.70979 16.8611 9.85124 17.1061 10.0998C17.3512 10.3484 17.4878 10.6838 17.4863 11.0329C17.4863 11.7626 16.9025 12.3554 16.1786 12.3587C15.8296 12.3589 15.4948 12.2209 15.2473 11.9748C14.9998 11.7288 14.8599 11.3948 14.858 11.0458V11.0192Z" fill="#707C97"/>
</svg>
