<svg width="24" height="24" viewBox="0 0 24 24" fill="none" xmlns="http://www.w3.org/2000/svg">
<g clip-path="url(#clip0_24_83)">
<path d="M14.6297 2.12494V4.2489C18.3366 5.37845 21.0419 8.82667 21.0419 12.8983C21.0419 17.8839 16.9862 21.94 12 21.94C7.01378 21.94 2.95759 17.8839 2.95759 12.8983C2.95759 8.82715 5.66285 5.37845 9.3698 4.2489V2.12494C4.51584 3.31067 0.898499 7.68501 0.898499 12.8983C0.898499 19.0202 5.8784 24 12 24C18.1216 24 23.1019 19.0202 23.1019 12.8983C23.1019 7.68453 19.4836 3.31067 14.6297 2.12494Z" fill="#707C97"/>
<path d="M12.001 13.1869C11.318 13.1869 10.7639 12.6323 10.7639 11.9494V1.23708C10.7639 0.554118 11.318 0 12.001 0C12.6839 0 13.2381 0.554118 13.2381 1.23708V11.9494C13.2381 12.6323 12.6839 13.1869 12.001 13.1869Z" fill="#707C97"/>
</g>
<defs>
<clipPath id="clip0_24_83">
<rect width="24" height="24" fill="white"/>
</clipPath>
</defs>
</svg>
